<svg xmlns="http://www.w3.org/2000/svg" width="32" height="32" viewBox="0 0 32 32" fill="none">
    <path fill-rule="evenodd" clip-rule="evenodd"
        d="M10.6798 11.0116V9.44103C10.6798 6.43603 13.0617 4 15.9999 4C18.9382 4 21.3201 6.43603 21.3201 9.44103V11.0075C21.6382 11.0412 21.9609 11.0779 22.289 11.1174C23.4286 11.2546 24.4028 12.0416 24.7122 13.1716C25.7219 16.8589 25.9487 20.976 25.9997 24.4885C26.0234 26.1244 24.8081 27.502 23.2145 27.6458C17.9712 28.1191 14.1292 28.1183 8.79091 27.642C7.19496 27.4996 5.97649 26.1211 6.00034 24.4829C6.05145 20.9731 6.27841 16.8603 7.28647 13.1762C7.59634 12.0437 8.57377 11.2561 9.71595 11.12C10.0425 11.0811 10.3635 11.045 10.6798 11.0116ZM12.5575 9.44103C12.5575 7.49662 14.0987 5.92036 15.9999 5.92036C17.9012 5.92036 19.4424 7.49662 19.4424 9.44103V10.8382C17.0929 10.6666 14.9236 10.6683 12.5575 10.8424V9.44103ZM11.869 16.4824C12.5603 16.4824 13.1208 15.9092 13.1208 15.2021C13.1208 14.4951 12.5603 13.9219 11.869 13.9219H11.8565C11.1651 13.9219 10.6047 14.4951 10.6047 15.2021C10.6047 15.9092 11.1651 16.4824 11.8565 16.4824H11.869ZM21.3827 15.2021C21.3827 15.9092 20.8223 16.4824 20.1309 16.4824H20.1184C19.427 16.4824 18.8666 15.9092 18.8666 15.2021C18.8666 14.4951 19.427 13.9219 20.1184 13.9219H20.1309C20.8223 13.9219 21.3827 14.4951 21.3827 15.2021Z"
        fill="white" />
</svg>