<svg width="24" height="24" viewBox="0 0 24 24" fill="none" xmlns="http://www.w3.org/2000/svg">
<path fill-rule="evenodd" clip-rule="evenodd" d="M8.82476 23.0007C8.74863 23.0007 8.6725 22.9702 8.6116 22.9144L6.73882 21.0416C6.66777 20.9655 6.63732 20.8589 6.65762 20.7574L6.97736 19.453L5.67302 19.7677C5.57151 19.7931 5.45985 19.7626 5.3888 19.6865L1.08497 15.3877C1.01391 15.3116 0.983462 15.205 1.00884 15.1035C1.03422 15.002 1.11034 14.9157 1.20677 14.8853C1.22708 14.8802 3.24196 14.2357 4.526 13.3576C4.60721 13.3018 4.67826 13.2511 4.74932 13.2003L10.799 19.25C9.84489 20.5036 9.11913 22.7672 9.10898 22.7926C9.07852 22.8941 8.99732 22.9702 8.89581 22.9956C8.87044 22.9956 8.85014 23.0007 8.82476 23.0007ZM5.01323 12.977C5.12996 12.8704 5.25684 12.7537 5.3888 12.6268C5.65271 12.373 5.94708 12.0888 6.27697 11.8147L12.1846 17.7224C11.9105 18.0523 11.6263 18.3466 11.3725 18.6105C11.2457 18.7425 11.1289 18.8694 11.0224 18.9861L5.01323 12.977ZM6.55104 11.6016C7.54072 10.8657 8.82476 10.3175 10.4641 10.9621C10.5047 10.9723 10.5351 10.9976 10.5656 11.0281L12.9713 13.4338C13.0017 13.4591 13.022 13.4947 13.0372 13.5353C13.6818 15.1746 13.1337 16.4586 12.3978 17.4483L6.55104 11.6016Z" fill="#08081A"/>
<path fill-rule="evenodd" clip-rule="evenodd" d="M10.5452 10.6221L10.9512 10.2161C11.1999 9.96737 11.611 9.96737 11.8647 10.2161L13.7832 12.1345C14.0319 12.3883 14.0319 12.7943 13.7832 13.0481L13.3772 13.4541L13.3569 13.4084C13.3264 13.3272 13.2757 13.2511 13.2148 13.1902L10.8091 10.7845C10.7431 10.7185 10.667 10.6678 10.5858 10.6373L10.5452 10.6221Z" fill="#08081A"/>
<path fill-rule="evenodd" clip-rule="evenodd" d="M12.1846 10.0536L20.8734 1.36475C21.1069 1.12621 21.4216 0.999329 21.7565 0.999329C22.0864 0.999329 22.4011 1.12621 22.6346 1.36475C22.868 1.59821 23 1.91288 23 2.24277C23 2.57774 22.868 2.89241 22.6346 3.12587L13.9457 11.8147L12.1846 10.0536Z" fill="#08081A"/>
</svg>
